<svg width="13" height="21" viewBox="0 0 13 21" fill="none" xmlns="http://www.w3.org/2000/svg">
<path d="M5.65142 18.242C4.50742 18.154 3.52476 17.8973 2.70342 17.472C1.89676 17.032 1.23676 16.4673 0.723424 15.778L2.46142 13.996C3.42942 15.0813 4.54409 15.6973 5.80542 15.844V11.29L5.29942 11.202C4.58076 11.07 3.95742 10.872 3.42942 10.608C2.91609 10.344 2.49076 10.0213 2.15342 9.64C1.83076 9.25867 1.58876 8.83333 1.42742 8.364C1.28076 7.89467 1.20742 7.38867 1.20742 6.846C1.20742 5.59933 1.58876 4.59467 2.35142 3.832C3.12876 3.06933 4.22876 2.60733 5.65142 2.446V0.157999H7.80742V2.424C8.76076 2.54133 9.57476 2.78333 10.2494 3.15C10.9388 3.51667 11.5181 3.99333 11.9874 4.58L10.2494 6.362C9.57476 5.55533 8.70942 5.064 7.65342 4.888V9.068L8.20342 9.156C9.64076 9.42 10.6821 9.93333 11.3274 10.696C11.9728 11.444 12.2954 12.368 12.2954 13.468C12.2954 14.7147 11.9068 15.756 11.1294 16.592C10.3668 17.4133 9.25942 17.934 7.80742 18.154V20.486H5.65142V18.242ZM3.91342 6.758C3.91342 7.30067 4.06009 7.71867 4.35342 8.012C4.64676 8.30533 5.13076 8.53267 5.80542 8.694V4.822C4.54409 4.998 3.91342 5.64333 3.91342 6.758ZM9.61142 13.644C9.61142 13.0573 9.45742 12.6173 9.14942 12.324C8.84142 12.016 8.34276 11.7887 7.65342 11.642V15.822C8.31342 15.7047 8.80476 15.4627 9.12742 15.096C9.45009 14.7293 9.61142 14.2453 9.61142 13.644Z" fill="#A9C3C6"/>
</svg>
